<?xml version="1.0" encoding="utf-8"?>
<svg width="671" height="181" viewBox="0 0 671 181" fill="none" xmlns="http://www.w3.org/2000/svg">
  <rect x="5" y="85" width="240" height="90" rx="45" fill="#914805" stroke="black" stroke-width="10"/>
  <circle cx="50" cy="130" r="45" fill="black" fill-opacity="0.25" stroke="black" stroke-width="10"/>
  <path d="M52.714 75.7729L36.7626 85.5812C34.4245 87.0189 33 89.5669 33 92.3117C33 98.3947 39.5856 102.196 44.853 99.1535L64.0974 88.0375C69.9789 84.6402 77.1517 84.3398 83.2966 87.2334L102.295 96.1794C115.529 102.411 130.829 102.535 144.162 96.5182L165.146 87.049C171.32 84.2626 178.455 84.5988 184.341 87.9535L204.147 99.2437C209.432 102.256 216 98.4398 216 92.3569C216 89.5865 214.554 87.0171 212.185 85.5799L195.67 75.5588C182.85 67.7797 166.867 67.3797 153.674 74.5079L147.416 77.8895C132.313 86.0495 114.079 85.8854 99.1252 77.4548L94.7288 74.9761C81.62 67.5855 65.5331 67.8906 52.714 75.7729Z" fill="#FFC700" stroke="black" stroke-width="10"/>
  <rect x="194.837" y="6.3278" width="10" height="103.689" rx="5" transform="rotate(15 194.837 6.3278)" fill="black"/>
  <path d="M249.902 49.89L185.134 62.0568L199.894 6.96926L249.902 49.89Z" fill="#FF0000" stroke="black" stroke-width="10"/>
  <path d="M331.816 159.784C333.352 161.224 334.12 162.76 334.12 164.392C334.12 165.832 333.592 167.08 332.536 168.136C331.576 169.192 330.376 169.72 328.936 169.72C327.688 169.72 326.392 169.144 325.048 167.992L287.464 135.592V163.96C287.464 165.784 286.888 167.224 285.736 168.28C284.68 169.24 283.336 169.72 281.704 169.72C279.976 169.72 278.536 169.24 277.384 168.28C276.328 167.224 275.8 165.784 275.8 163.96V72.52C275.8 70.696 276.328 69.304 277.384 68.344C278.536 67.288 279.976 66.76 281.704 66.76C283.336 66.76 284.68 67.288 285.736 68.344C286.888 69.304 287.464 70.696 287.464 72.52V130.984L321.88 99.448C323.032 98.296 324.328 97.72 325.768 97.72C327.208 97.72 328.456 98.248 329.512 99.304C330.568 100.36 331.096 101.608 331.096 103.048C331.096 104.68 330.424 106.12 329.08 107.368L300.712 132.712L331.816 159.784ZM382.504 97.432C386.536 97.144 388.552 98.776 388.552 102.328C388.552 103.864 388.12 105.112 387.256 106.072C386.392 106.936 384.904 107.464 382.792 107.656L378.472 108.088C372.04 108.664 367.24 110.968 364.072 115C361 118.936 359.464 123.592 359.464 128.968V163.96C359.464 165.88 358.936 167.32 357.88 168.28C356.824 169.24 355.432 169.72 353.704 169.72C351.976 169.72 350.536 169.24 349.384 168.28C348.328 167.224 347.8 165.784 347.8 163.96V103.192C347.8 101.368 348.376 99.976 349.528 99.016C350.68 97.96 352.072 97.432 353.704 97.432C355.24 97.432 356.536 97.96 357.592 99.016C358.648 99.976 359.176 101.32 359.176 103.048V111.112C361.192 106.888 364.024 103.672 367.672 101.464C371.416 99.256 375.688 97.96 380.488 97.576L382.504 97.432ZM426.247 170.008C419.623 170.008 413.767 168.52 408.679 165.544C403.687 162.568 399.799 158.344 397.015 152.872C394.327 147.304 392.983 140.872 392.983 133.576C392.983 126.28 394.327 119.896 397.015 114.424C399.799 108.856 403.687 104.584 408.679 101.608C413.767 98.632 419.623 97.144 426.247 97.144C432.871 97.144 438.727 98.632 443.815 101.608C448.903 104.584 452.791 108.856 455.479 114.424C458.263 119.896 459.655 126.28 459.655 133.576C459.655 140.872 458.263 147.304 455.479 152.872C452.791 158.344 448.903 162.568 443.815 165.544C438.727 168.52 432.871 170.008 426.247 170.008ZM426.247 160.36C433.159 160.36 438.439 158.104 442.087 153.592C445.831 148.984 447.703 142.312 447.703 133.576C447.703 125.032 445.831 118.456 442.087 113.848C438.343 109.144 433.063 106.792 426.247 106.792C419.431 106.792 414.151 109.144 410.407 113.848C406.663 118.456 404.791 125.032 404.791 133.576C404.791 142.216 406.615 148.84 410.263 153.448C414.007 158.056 419.335 160.36 426.247 160.36ZM533.05 159.784C534.586 161.224 535.354 162.76 535.354 164.392C535.354 165.832 534.826 167.08 533.77 168.136C532.81 169.192 531.61 169.72 530.17 169.72C528.922 169.72 527.626 169.144 526.282 167.992L488.698 135.592V163.96C488.698 165.784 488.122 167.224 486.97 168.28C485.914 169.24 484.57 169.72 482.938 169.72C481.21 169.72 479.77 169.24 478.618 168.28C477.562 167.224 477.034 165.784 477.034 163.96V72.52C477.034 70.696 477.562 69.304 478.618 68.344C479.77 67.288 481.21 66.76 482.938 66.76C484.57 66.76 485.914 67.288 486.97 68.344C488.122 69.304 488.698 70.696 488.698 72.52V130.984L523.114 99.448C524.266 98.296 525.562 97.72 527.002 97.72C528.442 97.72 529.69 98.248 530.746 99.304C531.802 100.36 532.33 101.608 532.33 103.048C532.33 104.68 531.658 106.12 530.314 107.368L501.946 132.712L533.05 159.784ZM602.057 152.728C603.113 152.728 604.025 153.16 604.793 154.024C605.561 154.888 605.945 155.992 605.945 157.336C605.945 159.736 604.265 161.944 600.905 163.96C597.449 165.976 593.801 167.512 589.961 168.568C586.121 169.528 582.377 170.008 578.729 170.008C567.881 170.008 559.289 166.792 552.953 160.36C546.713 153.928 543.593 145.048 543.593 133.72C543.593 126.52 544.985 120.184 547.769 114.712C550.553 109.144 554.441 104.824 559.433 101.752C564.521 98.68 570.281 97.144 576.713 97.144C585.833 97.144 593.081 100.12 598.457 106.072C603.833 112.024 606.521 120.088 606.521 130.264C606.521 132.184 606.137 133.576 605.369 134.44C604.601 135.304 603.353 135.736 601.625 135.736H555.257C556.121 152.248 563.945 160.504 578.729 160.504C582.473 160.504 585.689 160.024 588.377 159.064C591.065 158.008 593.945 156.616 597.017 154.888C599.513 153.448 601.193 152.728 602.057 152.728ZM576.857 106.216C570.713 106.216 565.769 108.136 562.025 111.976C558.377 115.816 556.217 121.24 555.545 128.248H596.297C596.105 121.144 594.329 115.72 590.969 111.976C587.609 108.136 582.905 106.216 576.857 106.216ZM655.684 160.504C659.044 160.792 660.724 162.328 660.724 165.112C660.724 166.744 660.1 167.992 658.852 168.856C657.7 169.624 655.924 169.912 653.524 169.72L649.636 169.432C641.956 168.856 636.292 166.552 632.644 162.52C628.996 158.488 627.172 152.392 627.172 144.232V108.088H617.524C615.892 108.088 614.596 107.704 613.636 106.936C612.772 106.072 612.34 104.968 612.34 103.624C612.34 102.184 612.772 101.032 613.636 100.168C614.596 99.304 615.892 98.872 617.524 98.872H627.172V82.6C627.172 80.776 627.7 79.384 628.756 78.424C629.812 77.368 631.252 76.84 633.076 76.84C634.804 76.84 636.196 77.368 637.252 78.424C638.308 79.384 638.836 80.776 638.836 82.6V98.872H654.82C656.356 98.872 657.556 99.304 658.42 100.168C659.38 101.032 659.86 102.184 659.86 103.624C659.86 104.968 659.38 106.072 658.42 106.936C657.556 107.704 656.356 108.088 654.82 108.088H638.836V144.808C638.836 150.088 639.892 153.928 642.004 156.328C644.212 158.632 647.476 159.928 651.796 160.216L655.684 160.504Z" fill="#FFC700"/>
  <path d="M331.816 159.784L338.655 152.489L338.521 152.362L338.381 152.241L331.816 159.784ZM332.536 168.136L325.465 161.065L325.297 161.233L325.137 161.409L332.536 168.136ZM325.048 167.992L318.519 175.566L318.529 175.575L318.54 175.585L325.048 167.992ZM287.464 135.592L293.993 128.018L277.464 113.768V135.592H287.464ZM285.736 168.28L292.463 175.679L292.478 175.666L292.493 175.652L285.736 168.28ZM277.384 168.28L270.313 175.351L270.634 175.672L270.982 175.962L277.384 168.28ZM277.384 68.344L284.111 75.7434L284.126 75.7295L284.141 75.7155L277.384 68.344ZM285.736 68.344L278.665 75.4151L278.986 75.7358L279.334 76.0262L285.736 68.344ZM287.464 130.984H277.464V153.711L294.22 138.357L287.464 130.984ZM321.88 99.448L328.636 106.821L328.797 106.673L328.951 106.519L321.88 99.448ZM329.08 107.368L335.742 114.825L335.814 114.761L335.885 114.696L329.08 107.368ZM300.712 132.712L294.05 125.255L285.593 132.81L294.147 140.255L300.712 132.712ZM324.977 167.079C325.07 167.167 324.849 166.987 324.6 166.488C324.327 165.942 324.12 165.21 324.12 164.392H344.12C344.12 159.25 341.59 155.24 338.655 152.489L324.977 167.079ZM324.12 164.392C324.12 163.858 324.225 163.196 324.514 162.512C324.801 161.834 325.175 161.354 325.465 161.065L339.607 175.207C342.461 172.353 344.12 168.592 344.12 164.392H324.12ZM325.137 161.409C325.514 160.994 326.097 160.519 326.889 160.171C327.678 159.824 328.407 159.72 328.936 159.72V179.72C333.164 179.72 337.061 178.025 339.935 174.863L325.137 161.409ZM328.936 159.72C330.905 159.72 331.836 160.64 331.556 160.399L318.54 175.585C320.948 177.648 324.471 179.72 328.936 179.72V159.72ZM331.577 160.418L293.993 128.018L280.935 143.166L318.519 175.566L331.577 160.418ZM277.464 135.592V163.96H297.464V135.592H277.464ZM277.464 163.96C277.464 163.82 277.487 163.344 277.747 162.694C278.021 162.01 278.457 161.387 278.979 160.908L292.493 175.652C296.062 172.381 297.464 168.074 297.464 163.96H277.464ZM279.009 160.881C279.458 160.472 280.001 160.147 280.573 159.943C281.123 159.746 281.536 159.72 281.704 159.72V179.72C285.441 179.72 289.301 178.553 292.463 175.679L279.009 160.881ZM281.704 159.72C281.768 159.72 282.06 159.73 282.49 159.873C282.938 160.023 283.392 160.27 283.786 160.598L270.982 175.962C274.2 178.644 278.013 179.72 281.704 179.72V159.72ZM284.455 161.209C284.982 161.736 285.363 162.36 285.585 162.965C285.794 163.535 285.8 163.914 285.8 163.96H265.8C265.8 167.811 266.982 172.02 270.313 175.351L284.455 161.209ZM285.8 163.96V72.52H265.8V163.96H285.8ZM285.8 72.52C285.8 72.5557 285.796 72.9944 285.546 73.6545C285.276 74.3659 284.799 75.1174 284.111 75.7434L270.657 60.9446C266.97 64.2964 265.8 68.7126 265.8 72.52H285.8ZM284.141 75.7155C283.773 76.0528 283.3 76.3506 282.771 76.5448C282.257 76.7329 281.867 76.76 281.704 76.76V56.76C277.76 56.76 273.824 58.0418 270.627 60.9724L284.141 75.7155ZM281.704 76.76C281.43 76.76 280.914 76.7128 280.279 76.4635C279.628 76.2074 279.075 75.8253 278.665 75.4151L292.807 61.2729C289.692 58.1583 285.717 56.76 281.704 56.76V76.76ZM279.334 76.0262C278.659 75.4639 278.12 74.7255 277.792 73.9315C277.484 73.1886 277.464 72.6502 277.464 72.52H297.464C297.464 68.4335 296.061 63.9312 292.138 60.6618L279.334 76.0262ZM277.464 72.52V130.984H297.464V72.52H277.464ZM294.22 138.357L328.636 106.821L315.124 92.0752L280.708 123.611L294.22 138.357ZM328.951 106.519C328.787 106.683 328.405 107.011 327.777 107.29C327.127 107.579 326.425 107.72 325.768 107.72V87.72C321.319 87.72 317.568 89.618 314.809 92.3769L328.951 106.519ZM325.768 107.72C325.234 107.72 324.572 107.615 323.888 107.326C323.21 107.039 322.73 106.665 322.441 106.375L336.583 92.2329C333.729 89.3792 329.968 87.72 325.768 87.72V107.72ZM322.441 106.375C322.151 106.086 321.777 105.606 321.49 104.928C321.201 104.244 321.096 103.582 321.096 103.048H341.096C341.096 98.848 339.437 95.0866 336.583 92.2329L322.441 106.375ZM321.096 103.048C321.096 102.443 321.231 101.764 321.53 101.123C321.817 100.508 322.146 100.16 322.275 100.04L335.885 114.696C338.987 111.815 341.096 107.82 341.096 103.048H321.096ZM322.418 99.9106L294.05 125.255L307.374 140.169L335.742 114.825L322.418 99.9106ZM294.147 140.255L325.251 167.327L338.381 152.241L307.277 125.169L294.147 140.255ZM382.504 97.432L383.216 107.407L383.216 107.407L382.504 97.432ZM387.256 106.072L394.327 113.143L394.513 112.957L394.689 112.762L387.256 106.072ZM382.792 107.656L381.887 97.6971L381.842 97.7011L381.797 97.7056L382.792 107.656ZM378.472 108.088L379.364 118.048L379.416 118.044L379.467 118.038L378.472 108.088ZM364.072 115L356.209 108.822L356.199 108.835L356.189 108.847L364.072 115ZM357.88 168.28L364.607 175.679L364.607 175.679L357.88 168.28ZM349.384 168.28L342.313 175.351L342.634 175.672L342.982 175.962L349.384 168.28ZM349.528 99.016L355.93 106.698L356.111 106.547L356.285 106.388L349.528 99.016ZM357.592 99.016L350.521 106.087L350.689 106.255L350.865 106.415L357.592 99.016ZM359.176 111.112H349.176L368.201 115.419L359.176 111.112ZM367.672 101.464L362.592 92.8503L362.543 92.8794L362.494 92.909L367.672 101.464ZM380.488 97.576L379.776 87.6014L379.733 87.6044L379.691 87.6078L380.488 97.576ZM383.216 107.407C384.064 107.346 382.563 107.682 380.748 106.212C378.625 104.494 378.552 102.388 378.552 102.328H398.552C398.552 98.7156 397.471 94.018 393.332 90.6675C389.501 87.5661 384.976 87.2299 381.792 87.4574L383.216 107.407ZM378.552 102.328C378.552 102.16 378.576 101.729 378.778 101.145C378.989 100.535 379.341 99.9183 379.823 99.3824L394.689 112.762C397.509 109.629 398.552 105.84 398.552 102.328H378.552ZM380.185 99.0009C381.065 98.1205 381.885 97.7852 382.148 97.6917C382.408 97.5996 382.375 97.6526 381.887 97.6971L383.697 117.615C386.587 117.352 390.968 116.503 394.327 113.143L380.185 99.0009ZM381.797 97.7056L377.477 98.1376L379.467 118.038L383.787 117.606L381.797 97.7056ZM377.58 98.1279C369.16 98.8819 361.499 102.089 356.209 108.822L371.935 121.178C372.981 119.847 374.92 118.446 379.364 118.048L377.58 98.1279ZM356.189 108.847C351.637 114.68 349.464 121.545 349.464 128.968H369.464C369.464 125.639 370.363 123.192 371.955 121.153L356.189 108.847ZM349.464 128.968V163.96H369.464V128.968H349.464ZM349.464 163.96C349.464 164.029 349.452 163.658 349.679 163.037C349.928 162.359 350.4 161.566 351.153 160.881L364.607 175.679C368.397 172.234 369.464 167.68 369.464 163.96H349.464ZM351.153 160.881C351.662 160.418 352.239 160.094 352.784 159.906C353.301 159.728 353.647 159.72 353.704 159.72V179.72C357.368 179.72 361.339 178.65 364.607 175.679L351.153 160.881ZM353.704 159.72C353.768 159.72 354.06 159.73 354.49 159.873C354.938 160.023 355.392 160.27 355.786 160.598L342.982 175.962C346.2 178.644 350.013 179.72 353.704 179.72V159.72ZM356.455 161.209C356.982 161.736 357.363 162.36 357.585 162.965C357.794 163.535 357.8 163.914 357.8 163.96H337.8C337.8 167.811 338.982 172.02 342.313 175.351L356.455 161.209ZM357.8 163.96V103.192H337.8V163.96H357.8ZM357.8 103.192C357.8 103.322 357.78 103.861 357.472 104.604C357.144 105.398 356.605 106.136 355.93 106.698L343.126 91.3338C339.203 94.6032 337.8 99.1055 337.8 103.192H357.8ZM356.285 106.388C355.973 106.673 355.531 106.97 354.983 107.178C354.441 107.383 353.983 107.432 353.704 107.432V87.432C349.692 87.432 345.855 88.8172 342.771 91.6444L356.285 106.388ZM353.704 107.432C353.305 107.432 352.717 107.359 352.055 107.089C351.387 106.817 350.871 106.437 350.521 106.087L364.663 91.9449C361.673 88.9546 357.808 87.432 353.704 87.432V107.432ZM350.865 106.415C350.243 105.85 349.763 105.14 349.472 104.401C349.199 103.703 349.176 103.195 349.176 103.048H369.176C369.176 99.1463 367.892 94.8654 364.319 91.6166L350.865 106.415ZM349.176 103.048V111.112H369.176V103.048H349.176ZM368.201 115.419C369.462 112.777 371.033 111.119 372.85 110.019L362.494 92.909C357.015 96.2253 352.922 100.999 350.151 106.805L368.201 115.419ZM372.752 110.078C375.054 108.72 377.832 107.82 381.285 107.544L379.691 87.6078C373.544 88.0996 367.778 89.7921 362.592 92.8503L372.752 110.078ZM381.2 107.551L383.216 107.407L381.792 87.4574L379.776 87.6014L381.2 107.551ZM408.679 165.544L403.559 174.133L403.595 174.155L403.631 174.176L408.679 165.544ZM397.015 152.872L388.01 157.219L388.055 157.314L388.103 157.407L397.015 152.872ZM397.015 114.424L388.071 109.952L388.055 109.983L388.04 110.015L397.015 114.424ZM408.679 101.608L403.631 92.9761L403.595 92.9972L403.559 93.0185L408.679 101.608ZM443.815 101.608L448.864 92.9761L448.864 92.9761L443.815 101.608ZM455.479 114.424L446.474 118.771L446.519 118.866L446.567 118.959L455.479 114.424ZM455.479 152.872L446.535 148.4L446.519 148.431L446.504 148.463L455.479 152.872ZM443.815 165.544L448.864 174.176L448.864 174.176L443.815 165.544ZM442.087 153.592L434.326 147.286L434.319 147.295L434.311 147.305L442.087 153.592ZM442.087 113.848L434.263 120.075L434.294 120.115L434.326 120.154L442.087 113.848ZM410.407 113.848L418.169 120.154L418.2 120.115L418.232 120.075L410.407 113.848ZM410.263 153.448L402.423 159.655L402.462 159.705L402.502 159.754L410.263 153.448ZM426.247 160.008C421.173 160.008 417.102 158.885 413.728 156.912L403.631 174.176C410.433 178.155 418.073 180.008 426.247 180.008V160.008ZM413.8 156.955C410.523 155.001 407.907 152.226 405.928 148.337L388.103 157.407C391.692 164.462 396.852 170.135 403.559 174.133L413.8 156.955ZM406.021 148.525C404.095 144.535 402.983 139.635 402.983 133.576H382.983C382.983 142.109 384.56 150.073 388.01 157.219L406.021 148.525ZM402.983 133.576C402.983 127.511 404.097 122.689 405.991 118.833L388.04 110.015C384.558 117.103 382.983 125.049 382.983 133.576H402.983ZM405.96 118.896C407.952 114.911 410.568 112.124 413.8 110.197L403.559 93.0185C396.807 97.0436 391.646 102.801 388.071 109.952L405.96 118.896ZM413.728 110.24C417.102 108.267 421.173 107.144 426.247 107.144V87.144C418.073 87.144 410.433 88.9973 403.631 92.9761L413.728 110.24ZM426.247 107.144C431.321 107.144 435.393 108.267 438.767 110.24L448.864 92.9761C442.062 88.9973 434.421 87.144 426.247 87.144V107.144ZM438.767 110.24C442.053 112.162 444.605 114.901 446.474 118.771L464.485 110.077C460.978 102.811 455.754 97.006 448.864 92.9761L438.767 110.24ZM446.567 118.959C448.513 122.785 449.655 127.561 449.655 133.576H469.655C469.655 124.999 468.014 117.007 464.392 109.889L446.567 118.959ZM449.655 133.576C449.655 139.586 448.515 144.44 446.535 148.4L464.424 157.344C468.012 150.168 469.655 142.158 469.655 133.576H449.655ZM446.504 148.463C444.65 152.236 442.099 154.963 438.767 156.912L448.864 174.176C455.708 170.173 460.932 164.452 464.455 157.281L446.504 148.463ZM438.767 156.912C435.393 158.885 431.321 160.008 426.247 160.008V180.008C434.421 180.008 442.062 178.155 448.864 174.176L438.767 156.912ZM426.247 170.36C435.537 170.36 443.947 167.197 449.864 159.879L434.311 147.305C432.932 149.011 430.782 150.36 426.247 150.36V170.36ZM449.849 159.898C455.586 152.836 457.703 143.562 457.703 133.576H437.703C437.703 141.062 436.077 145.132 434.326 147.286L449.849 159.898ZM457.703 133.576C457.703 123.719 455.559 114.57 449.849 107.542L434.326 120.154C436.104 122.342 437.703 126.345 437.703 133.576H457.703ZM449.912 107.621C444.001 100.194 435.649 96.792 426.247 96.792V116.792C430.478 116.792 432.686 118.094 434.263 120.075L449.912 107.621ZM426.247 96.792C416.846 96.792 408.494 100.194 402.583 107.621L418.232 120.075C419.809 118.094 422.017 116.792 426.247 116.792V96.792ZM402.646 107.542C396.936 114.57 394.791 123.719 394.791 133.576H414.791C414.791 126.345 416.391 122.342 418.169 120.154L402.646 107.542ZM394.791 133.576C394.791 143.448 396.852 152.619 402.423 159.655L418.104 147.241C416.378 145.061 414.791 140.984 414.791 133.576H394.791ZM402.502 159.754C408.468 167.097 416.877 170.36 426.247 170.36V150.36C421.794 150.36 419.546 149.015 418.025 147.142L402.502 159.754ZM533.05 159.784L539.89 152.489L539.755 152.362L539.616 152.241L533.05 159.784ZM533.77 168.136L526.699 161.065L526.531 161.233L526.371 161.409L533.77 168.136ZM526.282 167.992L519.753 175.566L519.764 175.575L519.774 175.585L526.282 167.992ZM488.698 135.592L495.228 128.018L478.698 113.768V135.592H488.698ZM486.97 168.28L493.697 175.679L493.712 175.666L493.728 175.652L486.97 168.28ZM478.618 168.28L471.547 175.351L471.868 175.672L472.217 175.962L478.618 168.28ZM478.618 68.344L485.345 75.7434L485.36 75.7295L485.376 75.7155L478.618 68.344ZM486.97 68.344L479.899 75.4151L480.22 75.7358L480.569 76.0262L486.97 68.344ZM488.698 130.984H478.698V153.711L495.454 138.357L488.698 130.984ZM523.114 99.448L529.87 106.821L530.031 106.673L530.185 106.519L523.114 99.448ZM530.314 107.368L536.977 114.825L537.048 114.761L537.119 114.696L530.314 107.368ZM501.946 132.712L495.284 125.255L486.827 132.81L495.381 140.255L501.946 132.712ZM526.211 167.079C526.304 167.167 526.084 166.987 525.834 166.488C525.561 165.942 525.354 165.21 525.354 164.392H545.354C545.354 159.25 542.825 155.24 539.89 152.489L526.211 167.079ZM525.354 164.392C525.354 163.858 525.459 163.196 525.749 162.512C526.035 161.834 526.41 161.354 526.699 161.065L540.841 175.207C543.695 172.353 545.354 168.592 545.354 164.392H525.354ZM526.371 161.409C526.748 160.994 527.332 160.519 528.123 160.171C528.912 159.824 529.641 159.72 530.17 159.72V179.72C534.399 179.72 538.295 178.025 541.17 174.863L526.371 161.409ZM530.17 159.72C532.139 159.72 533.071 160.64 532.79 160.399L519.774 175.585C522.182 177.648 525.706 179.72 530.17 179.72V159.72ZM532.812 160.418L495.228 128.018L482.169 143.166L519.753 175.566L532.812 160.418ZM478.698 135.592V163.96H498.698V135.592H478.698ZM478.698 163.96C478.698 163.82 478.722 163.344 478.982 162.694C479.255 162.01 479.692 161.387 480.213 160.908L493.728 175.652C497.296 172.381 498.698 168.074 498.698 163.96H478.698ZM480.244 160.881C480.693 160.472 481.236 160.147 481.807 159.943C482.357 159.746 482.77 159.72 482.938 159.72V179.72C486.676 179.72 490.536 178.553 493.697 175.679L480.244 160.881ZM482.938 159.72C483.003 159.72 483.295 159.73 483.725 159.873C484.173 160.023 484.626 160.27 485.02 160.598L472.217 175.962C475.435 178.644 479.247 179.72 482.938 179.72V159.72ZM485.689 161.209C486.216 161.736 486.597 162.36 486.819 162.965C487.028 163.535 487.034 163.914 487.034 163.96H467.034C467.034 167.811 468.216 172.02 471.547 175.351L485.689 161.209ZM487.034 163.96V72.52H467.034V163.96H487.034ZM487.034 72.52C487.034 72.5557 487.031 72.9944 486.78 73.6545C486.511 74.3659 486.034 75.1174 485.345 75.7434L471.892 60.9446C468.205 64.2964 467.034 68.7126 467.034 72.52H487.034ZM485.376 75.7155C485.008 76.0528 484.534 76.3506 484.005 76.5448C483.492 76.7329 483.101 76.76 482.938 76.76V56.76C478.995 56.76 475.058 58.0418 471.861 60.9724L485.376 75.7155ZM482.938 76.76C482.665 76.76 482.148 76.7128 481.514 76.4635C480.862 76.2074 480.31 75.8253 479.899 75.4151L494.041 61.2729C490.927 58.1583 486.952 56.76 482.938 56.76V76.76ZM480.569 76.0262C479.894 75.4639 479.355 74.7255 479.026 73.9315C478.719 73.1886 478.698 72.6502 478.698 72.52H498.698C498.698 68.4335 497.296 63.9312 493.372 60.6618L480.569 76.0262ZM478.698 72.52V130.984H498.698V72.52H478.698ZM495.454 138.357L529.87 106.821L516.359 92.0752L481.943 123.611L495.454 138.357ZM530.185 106.519C530.021 106.683 529.639 107.011 529.012 107.29C528.361 107.579 527.659 107.72 527.002 107.72V87.72C522.553 87.72 518.802 89.618 516.043 92.3769L530.185 106.519ZM527.002 107.72C526.469 107.72 525.807 107.615 525.122 107.326C524.444 107.039 523.965 106.665 523.675 106.375L537.817 92.2329C534.964 89.3792 531.202 87.72 527.002 87.72V107.72ZM523.675 106.375C523.386 106.086 523.011 105.606 522.725 104.928C522.435 104.244 522.33 103.582 522.33 103.048H542.33C542.33 98.848 540.671 95.0866 537.817 92.2329L523.675 106.375ZM522.33 103.048C522.33 102.443 522.466 101.764 522.765 101.123C523.051 100.508 523.381 100.16 523.51 100.04L537.119 114.696C540.222 111.815 542.33 107.82 542.33 103.048H522.33ZM523.652 99.9106L495.284 125.255L508.609 140.169L536.977 114.825L523.652 99.9106ZM495.381 140.255L526.485 167.327L539.616 152.241L508.512 125.169L495.381 140.255ZM604.793 154.024L597.319 160.668L597.319 160.668L604.793 154.024ZM600.905 163.96L605.943 172.598L605.997 172.567L606.05 172.535L600.905 163.96ZM589.961 168.568L592.386 178.269L592.5 178.241L592.612 178.21L589.961 168.568ZM552.953 160.36L545.775 167.323L545.802 167.351L545.829 167.378L552.953 160.36ZM547.769 114.712L556.682 119.247L556.697 119.215L556.713 119.184L547.769 114.712ZM559.433 101.752L554.264 93.1914L554.228 93.2132L554.192 93.2354L559.433 101.752ZM598.457 106.072L591.036 112.775L591.036 112.775L598.457 106.072ZM605.369 134.44L612.843 141.084L612.843 141.084L605.369 134.44ZM555.257 135.736V125.736H544.72L545.27 136.259L555.257 135.736ZM588.377 159.064L591.74 168.481L591.888 168.429L592.033 168.372L588.377 159.064ZM597.017 154.888L601.919 163.604L601.967 163.577L602.014 163.55L597.017 154.888ZM562.025 111.976L554.865 104.995L554.819 105.041L554.775 105.089L562.025 111.976ZM555.545 128.248L545.59 127.293L544.54 138.248H555.545V128.248ZM596.297 128.248V138.248H606.571L606.293 127.978L596.297 128.248ZM590.969 111.976L583.443 118.561L583.484 118.608L583.526 118.655L590.969 111.976ZM602.057 162.728C601.175 162.728 600.196 162.537 599.252 162.089C598.329 161.652 597.698 161.095 597.319 160.668L612.267 147.38C609.803 144.608 606.259 142.728 602.057 142.728V162.728ZM597.319 160.668C596.822 160.109 596.445 159.457 596.212 158.785C595.986 158.136 595.945 157.618 595.945 157.336H615.945C615.945 153.966 614.923 150.368 612.267 147.38L597.319 160.668ZM595.945 157.336C595.945 156.742 596.053 156.172 596.235 155.675C596.411 155.192 596.617 154.881 596.726 154.737C596.83 154.6 596.848 154.612 596.686 154.748C596.526 154.883 596.233 155.101 595.76 155.385L606.05 172.535C610.439 169.902 615.945 165.067 615.945 157.336H595.945ZM595.866 155.322C593.155 156.903 590.309 158.101 587.309 158.926L592.612 178.21C597.292 176.923 601.742 175.049 605.943 172.598L595.866 155.322ZM587.535 158.867C584.422 159.645 581.493 160.008 578.729 160.008V180.008C583.26 180.008 587.82 179.411 592.386 178.269L587.535 158.867ZM578.729 160.008C569.98 160.008 564.163 157.49 560.077 153.342L545.829 167.378C554.415 176.094 565.781 180.008 578.729 180.008V160.008ZM560.13 153.397C556.146 149.29 553.593 143.167 553.593 133.72H533.593C533.593 146.929 537.28 158.566 545.775 167.323L560.13 153.397ZM553.593 133.72C553.593 127.824 554.726 123.09 556.682 119.247L538.856 110.177C535.244 117.278 533.593 125.216 533.593 133.72H553.593ZM556.713 119.184C558.718 115.175 561.369 112.302 564.674 110.269L554.192 93.2354C547.513 97.3455 542.388 103.113 538.824 110.24L556.713 119.184ZM564.601 110.313C568.002 108.259 571.947 107.144 576.713 107.144V87.144C568.614 87.144 561.039 89.1006 554.264 93.1914L564.601 110.313ZM576.713 107.144C583.433 107.144 587.825 109.221 591.036 112.775L605.878 99.3691C598.336 91.0194 588.232 87.144 576.713 87.144V107.144ZM591.036 112.775C594.342 116.435 596.521 121.876 596.521 130.264H616.521C616.521 118.3 613.324 107.613 605.878 99.3691L591.036 112.775ZM596.521 130.264C596.521 130.601 596.482 130.49 596.593 130.089C596.709 129.667 597.04 128.758 597.895 127.796L612.843 141.084C616.019 137.511 616.521 133.126 616.521 130.264H596.521ZM597.895 127.796C599.801 125.652 601.921 125.736 601.625 125.736V145.736C604.784 145.736 609.401 144.956 612.843 141.084L597.895 127.796ZM601.625 125.736H555.257V145.736H601.625V125.736ZM545.27 136.259C545.772 145.836 548.363 154.699 554.514 161.191C560.837 167.863 569.457 170.504 578.729 170.504V150.504C573.217 150.504 570.532 149.017 569.031 147.433C567.359 145.669 565.606 142.148 565.243 135.213L545.27 136.259ZM578.729 170.504C583.282 170.504 587.695 169.926 591.74 168.481L585.013 149.647C583.682 150.122 581.664 150.504 578.729 150.504V170.504ZM592.033 168.372C595.231 167.115 598.53 165.51 601.919 163.604L592.114 146.172C589.359 147.722 586.899 148.901 584.72 149.756L592.033 168.372ZM602.014 163.55C602.534 163.25 602.97 163.011 603.33 162.825C603.695 162.637 603.942 162.522 604.088 162.459C604.25 162.39 604.198 162.423 603.979 162.485C603.862 162.518 603.648 162.573 603.356 162.623C603.072 162.671 602.625 162.728 602.057 162.728V142.728C599.451 142.728 597.213 143.646 596.21 144.077C594.862 144.654 593.439 145.407 592.02 146.226L602.014 163.55ZM576.857 96.216C568.445 96.216 560.77 98.9383 554.865 104.995L569.185 118.957C570.768 117.334 572.981 116.216 576.857 116.216V96.216ZM554.775 105.089C549.148 111.011 546.406 118.793 545.59 127.293L565.499 129.203C566.028 123.687 567.605 120.621 569.275 118.863L554.775 105.089ZM555.545 138.248H596.297V118.248H555.545V138.248ZM606.293 127.978C606.063 119.469 603.9 111.413 598.411 105.297L583.526 118.655C584.757 120.027 586.146 122.819 586.3 128.518L606.293 127.978ZM598.495 105.391C592.881 98.9751 585.202 96.216 576.857 96.216V116.216C580.608 116.216 582.337 117.297 583.443 118.561L598.495 105.391ZM655.684 160.504L656.538 150.541L656.481 150.536L656.423 150.531L655.684 160.504ZM658.852 168.856L664.399 177.177L664.472 177.128L664.544 177.078L658.852 168.856ZM653.524 169.72L654.322 159.752L654.292 159.749L654.263 159.747L653.524 169.72ZM649.636 169.432L648.888 179.404L648.898 179.405L649.636 169.432ZM632.644 162.52L625.229 169.229L625.229 169.229L632.644 162.52ZM627.172 108.088H637.172V98.088H627.172V108.088ZM613.636 106.936L606.565 114.007L606.957 114.399L607.389 114.745L613.636 106.936ZM613.636 100.168L606.947 92.7351L606.751 92.911L606.565 93.0969L613.636 100.168ZM627.172 98.872V108.872H637.172V98.872H627.172ZM628.756 78.424L635.483 85.8234L635.659 85.6633L635.827 85.4951L628.756 78.424ZM637.252 78.424L630.181 85.4951L630.35 85.6633L630.526 85.8234L637.252 78.424ZM638.836 98.872H628.836V108.872H638.836V98.872ZM658.42 100.168L651.349 107.239L651.535 107.425L651.731 107.601L658.42 100.168ZM658.42 106.936L665.064 114.41L665.087 114.39L665.11 114.369L658.42 106.936ZM638.836 108.088V98.088H628.836V108.088H638.836ZM642.004 156.328L634.497 162.934L634.638 163.094L634.784 163.247L642.004 156.328ZM651.796 160.216L652.535 150.243L652.498 150.241L652.462 150.238L651.796 160.216ZM654.83 170.467C655.327 170.51 654.12 170.536 652.717 169.252C651.981 168.579 651.426 167.749 651.089 166.882C650.769 166.06 650.724 165.413 650.724 165.112H670.724C670.724 161.588 669.575 157.567 666.212 154.492C663.128 151.672 659.401 150.786 656.538 150.541L654.83 170.467ZM650.724 165.112C650.724 164.638 650.821 163.782 651.312 162.8C651.817 161.791 652.527 161.073 653.16 160.634L664.544 177.078C668.721 174.186 670.724 169.735 670.724 165.112H650.724ZM653.305 160.535C654.219 159.927 654.938 159.796 655.056 159.777C655.175 159.758 654.972 159.804 654.322 159.752L652.727 179.688C655.879 179.94 660.431 179.822 664.399 177.177L653.305 160.535ZM654.263 159.747L650.375 159.459L648.898 179.405L652.786 179.693L654.263 159.747ZM650.384 159.46C644.194 158.996 641.381 157.271 640.06 155.811L625.229 169.229C631.204 175.833 639.718 178.716 648.888 179.404L650.384 159.46ZM640.06 155.811C638.739 154.351 637.172 151.121 637.172 144.232H617.172C617.172 153.663 619.254 162.625 625.229 169.229L640.06 155.811ZM637.172 144.232V108.088H617.172V144.232H637.172ZM627.172 98.088H617.524V118.088H627.172V98.088ZM617.524 98.088C617.418 98.088 618.565 98.0723 619.883 99.1273L607.389 114.745C610.628 117.336 614.367 118.088 617.524 118.088V98.088ZM620.707 99.8649C621.22 100.378 621.675 101.043 621.977 101.816C622.272 102.57 622.34 103.215 622.34 103.624H602.34C602.34 107.329 603.63 111.071 606.565 114.007L620.707 99.8649ZM622.34 103.624C622.34 103.903 622.298 104.471 622.028 105.191C621.746 105.942 621.292 106.654 620.707 107.239L606.565 93.0969C603.494 96.1683 602.34 100.041 602.34 103.624H622.34ZM620.326 107.601C619.726 108.141 619.071 108.49 618.491 108.683C617.943 108.865 617.58 108.872 617.524 108.872V88.872C614.097 88.872 610.189 89.8168 606.947 92.7351L620.326 107.601ZM617.524 108.872H627.172V88.872H617.524V108.872ZM637.172 98.872V82.6H617.172V98.872H637.172ZM637.172 82.6C637.172 82.6357 637.169 83.0744 636.918 83.7345C636.649 84.4459 636.172 85.1975 635.483 85.8234L622.03 71.0246C618.343 74.3764 617.172 78.7926 617.172 82.6H637.172ZM635.827 85.4951C635.3 86.0221 634.676 86.4027 634.071 86.6248C633.502 86.8335 633.122 86.84 633.076 86.84V66.84C629.225 66.84 625.017 68.0217 621.685 71.3529L635.827 85.4951ZM633.076 86.84C632.92 86.84 632.473 86.8148 631.87 86.586C631.239 86.3466 630.65 85.9642 630.181 85.4951L644.323 71.3529C641.096 68.1251 637.006 66.84 633.076 66.84V86.84ZM630.526 85.8234C629.837 85.1975 629.36 84.4459 629.09 83.7345C628.84 83.0744 628.836 82.6357 628.836 82.6H648.836C648.836 78.7926 647.666 74.3764 643.979 71.0246L630.526 85.8234ZM628.836 82.6V98.872H648.836V82.6H628.836ZM638.836 108.872H654.82V88.872H638.836V108.872ZM654.82 108.872C654.663 108.872 654.168 108.851 653.485 108.605C652.762 108.345 652.004 107.894 651.349 107.239L665.491 93.0969C662.299 89.904 658.29 88.872 654.82 88.872V108.872ZM651.731 107.601C651.148 107.076 650.62 106.368 650.27 105.526C649.93 104.711 649.86 104.023 649.86 103.624H669.86C669.86 99.7119 668.433 95.7253 665.11 92.7351L651.731 107.601ZM649.86 103.624C649.86 103.084 649.962 102.318 650.33 101.473C650.701 100.618 651.225 99.9578 651.731 99.503L665.11 114.369C668.272 111.523 669.86 107.672 669.86 103.624H649.86ZM651.777 99.4619C653.274 98.1307 654.726 98.088 654.82 98.088V118.088C657.987 118.088 661.838 117.277 665.064 114.41L651.777 99.4619ZM654.82 98.088H638.836V118.088H654.82V98.088ZM628.836 108.088V144.808H648.836V108.088H628.836ZM628.836 144.808C628.836 151.043 630.016 157.842 634.497 162.934L649.512 149.722C649.674 149.906 649.493 149.804 649.27 148.996C649.043 148.168 648.836 146.824 648.836 144.808H628.836ZM634.784 163.247C639.255 167.912 645.221 169.8 651.131 170.194L652.462 150.238C651.107 150.148 650.269 149.921 649.799 149.734C649.365 149.562 649.24 149.425 649.224 149.409L634.784 163.247ZM651.058 170.189L654.946 170.477L656.423 150.531L652.535 150.243L651.058 170.189Z" fill="black"/>
</svg>
