<?xml version="1.0" encoding="utf-8"?>
<svg width="250" height="116" viewBox="0 0 250 116" fill="none" xmlns="http://www.w3.org/2000/svg">
  <rect x="5" y="21" width="240" height="90" rx="45" fill="#914805" stroke="black" stroke-width="10"/>
  <circle cx="50" cy="66" r="45" fill="black" fill-opacity="0.25" stroke="black" stroke-width="10"/>
  <path d="M52.714 11.7729L36.7626 21.5812C34.4245 23.0189 33 25.5669 33 28.3117C33 34.3947 39.5856 38.196 44.853 35.1535L64.0974 24.0375C69.9789 20.6402 77.1517 20.3398 83.2966 23.2334L102.295 32.1794C115.529 38.4113 130.829 38.535 144.162 32.5182L165.146 23.049C171.32 20.2626 178.455 20.5988 184.341 23.9535L204.147 35.2437C209.432 38.2561 216 34.4398 216 28.3569C216 25.5865 214.554 23.0171 212.185 21.5799L195.67 11.5588C182.85 3.77967 166.867 3.37972 153.674 10.5079L147.416 13.8895C132.313 22.0495 114.079 21.8854 99.1252 13.4548L94.7288 10.9761C81.62 3.58548 65.5331 3.89056 52.714 11.7729Z" fill="#FFC700" stroke="black" stroke-width="10"/>
</svg>

