<?xml version="1.0" encoding="utf-8"?>
<svg xmlns="http://www.w3.org/2000/svg" fill="none" viewBox="0 0 300 203"><path fill="url(#paint0_linear)" d="M50.102 152.832l-11.4-11.926c-30.207-31.605-30.7-81.23-1.127-113.429A82.953 82.953 0 01104.57.847l4.905.35L220.551 21.86A84.447 84.447 0 01275.34 57.99c22.451 33.624 17.921 78.442-10.804 106.894l-8.836 8.752c-25.762 25.517-63.363 35.005-98.148 24.767l-63.147-18.585a100.554 100.554 0 01-44.303-26.987z"/><rect width="280" height="80" x="10" y="37" stroke="#000" stroke-width="20" rx="40"/><path stroke="#000" stroke-width="15" d="M45 87l6.092-6.092c13.61-13.61 35.28-14.811 50.31-2.787v0c13.796 11.038 33.4 11.038 47.196 0l2.804-2.242c13.796-11.038 33.4-11.038 47.196 0v0c15.031 12.024 36.699 10.824 50.31-2.787L255 67"/><circle cx="45.5" cy="86.5" r="7.5" fill="#000"/><circle cx="254.5" cy="67.5" r="7.5" fill="#000"/><path fill="#000" d="M59.176 175.168c1.11 1.067 1.664 2.304 1.664 3.712 0 1.408-.533 2.645-1.6 3.712-1.067 1.067-2.325 1.6-3.776 1.6-1.579 0-3.03-.683-4.352-2.048l-18.24-18.688v15.104c0 1.792-.533 3.221-1.6 4.288-1.067 1.024-2.517 1.536-4.352 1.536-1.792 0-3.221-.512-4.288-1.536-1.024-1.067-1.536-2.496-1.536-4.288v-34.24c0-1.749.512-3.136 1.536-4.16 1.067-1.067 2.496-1.6 4.288-1.6 1.835 0 3.285.533 4.352 1.6 1.067 1.024 1.6 2.411 1.6 4.16v14.08l17.984-18.112c1.11-1.152 2.368-1.728 3.776-1.728s2.645.533 3.712 1.6c1.067 1.024 1.6 2.24 1.6 3.648s-.619 2.709-1.856 3.904l-13.12 12.864 14.208 14.592zm44.56 1.344c.768 1.152 1.152 2.24 1.152 3.264 0 1.365-.576 2.517-1.728 3.456-1.11.896-2.411 1.344-3.904 1.344a6.12 6.12 0 01-2.88-.704c-.897-.469-1.665-1.173-2.305-2.112l-8.32-12.16c-.597-.853-1.237-1.472-1.92-1.856-.64-.427-1.407-.64-2.303-.64h-4.16v11.456c0 1.792-.512 3.221-1.536 4.288-1.024 1.024-2.432 1.536-4.224 1.536-1.793 0-3.222-.512-4.288-1.536-1.024-1.067-1.536-2.496-1.536-4.288v-34.24c0-1.749.469-3.093 1.407-4.032.94-.939 2.283-1.408 4.032-1.408h16.064c5.462 0 9.558 1.195 12.288 3.584 2.774 2.347 4.161 5.76 4.161 10.24 0 3.413-.939 6.315-2.816 8.704-1.878 2.347-4.523 3.925-7.936 4.736 1.407.213 2.624.683 3.648 1.408 1.066.725 2.111 1.813 3.135 3.264l3.969 5.696zm-18.305-18.24c2.603 0 4.46-.405 5.569-1.216 1.151-.811 1.728-2.133 1.728-3.968 0-1.877-.576-3.221-1.728-4.032-1.11-.853-2.966-1.28-5.569-1.28H77.24v10.496h8.192zm46.73 26.304c-4.608 0-8.619-.939-12.032-2.816-3.371-1.92-5.973-4.608-7.808-8.064-1.835-3.499-2.752-7.595-2.752-12.288 0-4.693.917-8.768 2.752-12.224 1.835-3.499 4.437-6.187 7.808-8.064 3.413-1.877 7.424-2.816 12.032-2.816s8.597.939 11.968 2.816c3.413 1.877 6.016 4.565 7.808 8.064 1.835 3.456 2.752 7.531 2.752 12.224 0 4.693-.917 8.789-2.752 12.288-1.835 3.456-4.459 6.144-7.872 8.064-3.371 1.877-7.339 2.816-11.904 2.816zm0-9.024c3.413 0 6.08-1.195 8-3.584 1.92-2.432 2.88-5.952 2.88-10.56 0-4.608-.981-8.107-2.944-10.496-1.92-2.389-4.565-3.584-7.936-3.584-3.413 0-6.08 1.195-8 3.584-1.92 2.347-2.88 5.845-2.88 10.496 0 4.651.96 8.171 2.88 10.56 1.92 2.389 4.587 3.584 8 3.584zm67.578-.384c1.109 1.067 1.664 2.304 1.664 3.712 0 1.408-.534 2.645-1.6 3.712-1.067 1.067-2.326 1.6-3.776 1.6-1.579 0-3.03-.683-4.352-2.048l-18.24-18.688v15.104c0 1.792-.534 3.221-1.6 4.288-1.067 1.024-2.518 1.536-4.352 1.536-1.792 0-3.222-.512-4.288-1.536-1.024-1.067-1.536-2.496-1.536-4.288v-34.24c0-1.749.512-3.136 1.536-4.16 1.066-1.067 2.496-1.6 4.288-1.6 1.834 0 3.285.533 4.352 1.6 1.066 1.024 1.6 2.411 1.6 4.16v14.08l17.984-18.112c1.109-1.152 2.368-1.728 3.775-1.728 1.409 0 2.646.533 3.713 1.6 1.066 1.024 1.6 2.24 1.6 3.648s-.619 2.709-1.856 3.904l-13.12 12.864 14.208 14.592zM211.786 184c-1.749 0-3.093-.469-4.032-1.408-.939-.939-1.408-2.283-1.408-4.032v-34.24c0-1.749.469-3.093 1.408-4.032.939-.939 2.283-1.408 4.032-1.408h22.144c1.835 0 3.221.384 4.16 1.152.939.768 1.408 1.877 1.408 3.328 0 3.072-1.856 4.608-5.568 4.608h-16.128v8.576h14.848c3.712 0 5.568 1.515 5.568 4.544 0 1.451-.469 2.56-1.408 3.328-.939.768-2.325 1.152-4.16 1.152h-14.848v9.344h16.128c3.712 0 5.568 1.536 5.568 4.608 0 1.451-.469 2.56-1.408 3.328-.939.768-2.325 1.152-4.16 1.152h-22.144zm49.876.32c-1.792 0-3.243-.512-4.352-1.536-1.067-1.067-1.6-2.475-1.6-4.224v-30.144h-9.024c-1.878 0-3.286-.384-4.224-1.152-.896-.811-1.345-2.027-1.345-3.648s.449-2.816 1.345-3.584c.938-.768 2.346-1.152 4.224-1.152h29.952c1.877 0 3.264.384 4.16 1.152.938.768 1.408 1.963 1.408 3.584s-.47 2.837-1.408 3.648c-.896.768-2.283 1.152-4.16 1.152h-9.024v30.144c0 1.749-.555 3.157-1.664 4.224-1.067 1.024-2.496 1.536-4.288 1.536z"/><defs><linearGradient id="paint0_linear" x1="149.5" x2="149.5" y1="-2" y2="215" gradientUnits="userSpaceOnUse"><stop stop-color="#863507"/><stop offset="1" stop-color="#863507" stop-opacity=".69"/></linearGradient></defs></svg>
